<svg width="932" height="461" viewBox="0 0 932 461" xmlns="http://www.w3.org/2000/svg"><title>cert-img-2</title><g fill="none"><g fill="#fff" fill-opacity=".8"><path d="M300 360h54v100h-54z"/><path d="M0 310h54v150h-54z"/><path d="M618 340h54v120h-54z"/><path d="M504 377h54v83.194h-54z"/><path d="M210 370h54v90h-54z"/><path d="M828 250h54v210h-54z"/><path d="M337 250h54v210h-54z"/><path d="M33 400h54v60h-54z"/><path d="M651 209h54v251h-54z"/><path d="M460 310h54v150h-54z"/><path d="M156 310h54v150h-54z"/><path d="M774 395h54v65h-54z"/><path d="M423 395h54v65h-54z"/><path d="M119 395h54v65h-54z"/><path d="M737 395h54v65h-54z"/><path d="M547 310h54v150h-54z"/><path d="M243 310h54v150h-54z"/><path d="M861 310h54v150h-54z"/><path d="M354 273h54v187h-54z"/><path d="M50 273h54v187h-54z"/><path d="M668 273h54v187h-54z"/><path d="M441 400h54v60h-54z"/><path d="M137 400h54v60h-54z"/><path d="M755 400h54v60h-54z"/><path d="M582 310h54v150h-54z"/><path d="M260 330h54v130h-54z"/><path d="M878 310h54v150h-54z"/><path d="M391 424h54v36h-54z"/><path d="M87 424h54v36h-54z"/><path d="M705 424h54v36h-54z"/></g><path d="M884.5 136.497v75.003" stroke="#fff" stroke-width="5" stroke-linecap="round" stroke-linejoin="bevel" stroke-dasharray="1,10,1,10" opacity=".7"/><path d="M575.5 136.5v135" stroke="#fff" stroke-width="5" stroke-linecap="round" stroke-linejoin="bevel" stroke-dasharray="1,10,1,10" opacity=".7"/><path d="M466.5 2.5v135" stroke="#fff" stroke-width="5" stroke-linecap="round" stroke-linejoin="bevel" stroke-dasharray="1,10,1,10" opacity=".7"/><path d="M328.5 136.5v90" stroke="#fff" stroke-width="5" stroke-linecap="round" stroke-linejoin="bevel" stroke-dasharray="1,10,1,10" opacity=".7"/><path d="M217.5 136.497v131.003" stroke="#fff" stroke-width="5" stroke-linecap="round" stroke-linejoin="bevel" stroke-dasharray="1,10,1,10" opacity=".7"/><path d="M886 137h-840" stroke="#fff" stroke-width="5" stroke-linecap="round" stroke-linejoin="bevel" stroke-dasharray="1,10,1,10" opacity=".7"/><path d="M47.5 136.497v75.003" stroke="#fff" stroke-width="5" stroke-linecap="round" stroke-linejoin="bevel" stroke-dasharray="1,10,1,10" opacity=".7"/></g></svg>