<svg width="942" height="212" viewBox="0 0 942 212" xmlns="http://www.w3.org/2000/svg" xmlns:sketch="http://www.bohemiancoding.com/sketch/ns"><title>distr-img-2</title><desc>Created with Sketch.</desc><g sketch:type="MSShapeGroup" fill-opacity=".8" fill="#fff"><path d="M307.436 93.576h65.893v118.414h-65.893z"/><path d="M.5 93.576h65.893v118.414h-65.893z"/><path d="M624.468 93.576h65.893v118.414h-65.893z"/><path d="M519.464 128.008h65.893v83.982h-65.893z"/><path d="M212.528 128.008h65.893v83.982h-65.893z"/><path d="M836.496 128.008h65.893v83.982h-65.893z"/><path d="M340.382 0h54.521v211.991h-54.521z"/><path d="M33.447 0h54.521v211.991h-54.521z"/><path d="M657.415 0h54.521v211.991h-54.521z"/><path d="M464.942 0h54.521v211.991h-54.521z"/><path d="M158.006 0h54.521v211.991h-54.521z"/><path d="M781.974 0h54.521v211.991h-54.521z"/><path d="M427.85 146.374h54.521v65.616h-54.521z"/><path d="M120.915 146.374h54.521v65.616h-54.521z"/><path d="M744.883 146.374h54.521v65.616h-54.521z"/><path d="M552.41 61.641h54.521v150.349h-54.521z"/><path d="M245.475 61.641h54.521v150.349h-54.521z"/><path d="M869.442 61.641h54.521v150.349h-54.521z"/><path d="M357.918 23.218h54.521v188.773h-54.521z"/><path d="M50.983 23.218h54.521v188.773h-54.521z"/><path d="M674.951 23.218h54.521v188.773h-54.521z"/><path d="M445.387 153.561h54.521v58.43h-54.521z"/><path d="M138.451 153.561h54.521v58.43h-54.521z"/><path d="M762.419 153.561h54.521v58.43h-54.521z"/><path d="M569.946 78.108h54.521v133.882h-54.521z"/><path d="M263.011 78.108h54.521v133.882h-54.521z"/><path d="M886.979 78.108h54.521v133.882h-54.521z"/><path d="M394.904 175.339h65.893v36.652h-65.893z"/><path d="M87.968 175.339h65.893v36.652h-65.893z"/><path d="M711.936 175.339h65.893v36.652h-65.893z"/></g></svg>