<svg width="636" height="1208" viewBox="0 0 636 1208" xmlns="http://www.w3.org/2000/svg" xmlns:sketch="http://www.bohemiancoding.com/sketch/ns"><title>Imported Layers</title><desc>Created with Sketch.</desc><g sketch:type="MSLayerGroup" fill="none"><path d="M453.828 406.555l-74.294 181.549" stroke="#73B2C4" stroke-width="4" stroke-linecap="round" stroke-linejoin="round" stroke-dasharray="0,7.717000000000001" sketch:type="MSShapeGroup"/><path d="M-160.619 240.043l185.045 343.892" stroke="#73B2C4" stroke-width="4" stroke-linecap="round" stroke-linejoin="round" stroke-dasharray="0,7.852" sketch:type="MSShapeGroup"/><path d="M368.457 240.255l-74.546 147.188" stroke="#73B2C4" stroke-width="4" stroke-linecap="round" stroke-linejoin="round" stroke-dasharray="0,7.857" sketch:type="MSShapeGroup"/><path d="M380.292 240.045l189.19 343.89" stroke="#73B2C4" stroke-width="4" stroke-linecap="round" stroke-linejoin="round" stroke-dasharray="0,7.892" sketch:type="MSShapeGroup"/><path d="M118.937 84.51l250.919 136.125" stroke="#73B2C4" stroke-width="4" stroke-linecap="round" stroke-linejoin="round" stroke-dasharray="0,7.827" sketch:type="MSShapeGroup"/><path d="M88.587 84.51l-249.856 136.125" stroke="#73B2C4" stroke-width="4" stroke-linecap="round" stroke-linejoin="round" stroke-dasharray="0,7.801" sketch:type="MSShapeGroup"/><path d="M103.731 150.162c40.817 0 73.902-33.086 73.902-73.901 0-40.816-33.085-73.901-73.902-73.901s-73.905 33.086-73.905 73.901c0 40.816 33.087 73.901 73.905 73.901" fill="#fff" sketch:type="MSShapeGroup"/><text sketch:type="MSTextLayer" font-family="Open Sans" font-size="30.942" font-weight="bold" fill="#73B2C4" transform="translate(0 -1209) translate(-427 1211)"><tspan x="496.106" y="76.955">YOU</tspan></text><path d="M103.731 150.162c40.817 0 73.902-33.086 73.902-73.901 0-40.816-33.085-73.901-73.902-73.901s-73.905 33.086-73.905 73.901c0 40.816 33.087 73.901 73.905 73.901z" stroke="#73B2C4" stroke-width="4" sketch:type="MSShapeGroup"/><path d="M377.463 282.998c32.165 0 58.239-26.076 58.239-58.238 0-32.164-26.073-58.238-58.239-58.238-32.168 0-58.241 26.074-58.241 58.238 0 32.162 26.073 58.238 58.241 58.238" fill="#fff" sketch:type="MSShapeGroup"/><path d="M377.463 282.998c32.165 0 58.239-26.076 58.239-58.238 0-32.164-26.073-58.238-58.239-58.238-32.168 0-58.241 26.074-58.241 58.238 0 32.162 26.073 58.238 58.241 58.238z" stroke="#73B2C4" stroke-width="4" sketch:type="MSShapeGroup"/><path d="M279.181 453.425c32.165 0 58.239-26.074 58.239-58.234 0-32.164-26.073-58.238-58.239-58.238-32.165 0-58.239 26.074-58.239 58.238 0 32.16 26.073 58.234 58.239 58.234" fill="#fff" sketch:type="MSShapeGroup"/><path d="M279.181 453.425c32.165 0 58.239-26.074 58.239-58.234 0-32.164-26.073-58.238-58.239-58.238-32.165 0-58.239 26.074-58.239 58.238 0 32.16 26.073 58.234 58.239 58.234z" stroke="#73B2C4" stroke-width="4" sketch:type="MSShapeGroup"/><path d="M473.428 453.425c32.165 0 58.239-26.074 58.239-58.234 0-32.164-26.073-58.238-58.239-58.238-32.165 0-58.239 26.074-58.239 58.238 0 32.16 26.073 58.234 58.239 58.234" fill="#fff" sketch:type="MSShapeGroup"/><path d="M473.428 453.425c32.165 0 58.239-26.074 58.239-58.234 0-32.164-26.073-58.238-58.239-58.238-32.165 0-58.239 26.074-58.239 58.238 0 32.16 26.073 58.234 58.239 58.234z" stroke="#73B2C4" stroke-width="4" sketch:type="MSShapeGroup"/><path d="M30.105 649.205c32.165 0 58.239-26.072 58.239-58.236s-26.073-58.238-58.239-58.238c-32.165 0-58.239 26.074-58.239 58.238s26.073 58.236 58.239 58.236" fill="#fff" sketch:type="MSShapeGroup"/><path d="M30.105 651.415c33.333 0 60.449-27.115 60.449-60.446 0-33.329-27.117-60.449-60.449-60.449-33.333 0-60.449 27.12-60.449 60.449 0 33.331 27.117 60.446 60.449 60.446z" stroke="#73B2C4" stroke-width="2" sketch:type="MSShapeGroup"/><path d="M30.105 645.522c30.083 0 54.556-24.474 54.556-54.553 0-30.08-24.473-54.556-54.556-54.556s-54.556 24.476-54.556 54.556 24.473 54.553 54.556 54.553z" stroke="#73B2C4" stroke-width=".668" sketch:type="MSShapeGroup"/><path d="M135.496 1147.082h69.17v60.57h-69.17v-60.57z" fill="#fff" sketch:type="MSShapeGroup"/><path d="M342.872 1147.082h69.174v60.57h-69.174v-60.57z" fill="#fff" sketch:type="MSShapeGroup"/><path d="M539.099 1147.082h69.17v60.57h-69.17v-60.57z" fill="#fff" sketch:type="MSShapeGroup"/><path d="M-1.627 654.322h69.17v60.57h-69.17v-60.57z" fill="#fff" sketch:type="MSShapeGroup"/><path d="M573.687 641v369.601" stroke="#73B2C4" stroke-width="4" stroke-linecap="round" stroke-linejoin="round" stroke-dasharray="0,8.093999999999999" sketch:type="MSShapeGroup"/><path d="M377.463 627v383.601" stroke="#73B2C4" stroke-width="4" stroke-linecap="round" stroke-linejoin="round" stroke-dasharray="0,8.093999999999999" sketch:type="MSShapeGroup"/><path d="M368.594 863.141l-188.025 210.086" stroke="#73B2C4" stroke-width="4" stroke-linecap="round" stroke-linejoin="round" stroke-dasharray="0,8.229000000000001" sketch:type="MSShapeGroup"/><path d="M573.687 649.813c32.163 0 58.236-26.07 58.236-58.236 0-32.162-26.073-58.236-58.236-58.236-32.168 0-58.241 26.074-58.241 58.236 0 32.166 26.073 58.236 58.241 58.236" fill="#fff" sketch:type="MSShapeGroup"/><path d="M573.687 652.023c33.333 0 60.447-27.115 60.447-60.446 0-33.329-27.114-60.446-60.447-60.446s-60.451 27.118-60.451 60.446c0 33.331 27.119 60.446 60.451 60.446z" stroke="#73B2C4" stroke-width="2" sketch:type="MSShapeGroup"/><path d="M573.687 646.13c30.081 0 54.554-24.474 54.554-54.553 0-30.08-24.473-54.553-54.554-54.553-30.085 0-54.558 24.474-54.558 54.553 0 30.08 24.473 54.553 54.558 54.553z" stroke="#73B2C4" stroke-width=".668" sketch:type="MSShapeGroup"/><path d="M377.463 649.813c32.165 0 58.239-26.07 58.239-58.236 0-32.162-26.073-58.236-58.239-58.236-32.168 0-58.241 26.074-58.241 58.236 0 32.166 26.073 58.236 58.241 58.236" fill="#fff" sketch:type="MSShapeGroup"/><path d="M377.463 652.023c33.333 0 60.449-27.115 60.449-60.446 0-33.329-27.117-60.446-60.449-60.446-33.333 0-60.451 27.118-60.451 60.446 0 33.331 27.119 60.446 60.451 60.446z" stroke="#73B2C4" stroke-width="2" sketch:type="MSShapeGroup"/><path d="M377.463 646.13c30.081 0 54.556-24.474 54.556-54.553 0-30.08-24.475-54.553-54.556-54.553-30.083 0-54.558 24.474-54.558 54.553 0 30.08 24.475 54.553 54.558 54.553z" stroke="#73B2C4" stroke-width=".668" sketch:type="MSShapeGroup"/><path d="M377.463 908.784c32.165 0 58.239-26.076 58.239-58.236 0-32.164-26.073-58.24-58.239-58.24-32.168 0-58.241 26.076-58.241 58.24 0 32.16 26.073 58.236 58.241 58.236" fill="#fff" sketch:type="MSShapeGroup"/><path d="M377.463 910.995c33.333 0 60.449-27.118 60.449-60.446 0-33.333-27.117-60.451-60.449-60.451-33.333 0-60.451 27.118-60.451 60.451 0 33.329 27.119 60.446 60.451 60.446z" stroke="#73B2C4" stroke-width="2" sketch:type="MSShapeGroup"/><path d="M377.463 905.102c30.081 0 54.556-24.476 54.556-54.553 0-30.082-24.475-54.558-54.556-54.558-30.083 0-54.558 24.476-54.558 54.558 0 30.077 24.475 54.553 54.558 54.553z" stroke="#73B2C4" stroke-width=".668" sketch:type="MSShapeGroup"/><path d="M573.687 908.784c32.163 0 58.236-26.076 58.236-58.236 0-32.164-26.073-58.24-58.236-58.24-32.168 0-58.241 26.076-58.241 58.24 0 32.16 26.073 58.236 58.241 58.236" fill="#fff" sketch:type="MSShapeGroup"/><path d="M573.687 910.995c33.333 0 60.447-27.118 60.447-60.446 0-33.333-27.114-60.451-60.447-60.451s-60.451 27.118-60.451 60.451c0 33.329 27.119 60.446 60.451 60.446z" stroke="#73B2C4" stroke-width="2" sketch:type="MSShapeGroup"/><path d="M573.687 905.102c30.081 0 54.554-24.476 54.554-54.553 0-30.082-24.473-54.558-54.554-54.558-30.085 0-54.558 24.476-54.558 54.558 0 30.077 24.473 54.553 54.558 54.553z" stroke="#73B2C4" stroke-width=".668" sketch:type="MSShapeGroup"/><path d="M573.687 1142.661c32.163 0 58.236-26.072 58.236-58.234 0-32.164-26.073-58.24-58.236-58.24-32.168 0-58.241 26.076-58.241 58.24 0 32.162 26.073 58.234 58.241 58.234" fill="#fff" sketch:type="MSShapeGroup"/><path d="M573.687 1142.661c32.163 0 58.236-26.072 58.236-58.234 0-32.164-26.073-58.24-58.236-58.24-32.168 0-58.241 26.076-58.241 58.24 0 32.162 26.073 58.234 58.241 58.234z" stroke="#73B2C4" stroke-width="4" sketch:type="MSShapeGroup"/><path d="M377.463 1142.661c32.165 0 58.239-26.072 58.239-58.234 0-32.164-26.073-58.24-58.239-58.24-32.168 0-58.241 26.076-58.241 58.24 0 32.162 26.073 58.234 58.241 58.234" fill="#fff" sketch:type="MSShapeGroup"/><path d="M377.463 1144.872c33.333 0 60.449-27.115 60.449-60.444 0-33.329-27.117-60.451-60.449-60.451-33.333 0-60.451 27.122-60.451 60.451s27.119 60.444 60.451 60.444z" stroke="#73B2C4" stroke-width="2" sketch:type="MSShapeGroup"/><path d="M377.463 1138.979c30.081 0 54.556-24.474 54.556-54.551 0-30.084-24.475-54.558-54.556-54.558-30.083 0-54.558 24.474-54.558 54.558 0 30.077 24.475 54.551 54.558 54.551z" stroke="#73B2C4" stroke-width=".668" sketch:type="MSShapeGroup"/><path d="M174.501 1138.241c32.165 0 58.239-26.072 58.239-58.234 0-32.164-26.073-58.24-58.239-58.24-32.163 0-58.236 26.076-58.236 58.24 0 32.162 26.073 58.234 58.236 58.234" fill="#fff" sketch:type="MSShapeGroup"/><path d="M174.501 1140.451c33.335 0 60.449-27.115 60.449-60.444 0-33.329-27.114-60.451-60.449-60.451-33.333 0-60.447 27.122-60.447 60.451s27.114 60.444 60.447 60.444z" stroke="#73B2C4" stroke-width="2" sketch:type="MSShapeGroup"/><path d="M174.501 1134.558c30.085 0 54.556-24.474 54.556-54.551 0-30.084-24.471-54.558-54.556-54.558-30.083 0-54.554 24.474-54.554 54.558 0 30.077 24.471 54.551 54.554 54.551z" stroke="#73B2C4" stroke-width=".668" sketch:type="MSShapeGroup"/></g></svg>