<svg viewBox="0 0 946 1019" xmlns="http://www.w3.org/2000/svg"><g fill="none"><path d="M783.958 361.609l-66.039 161.38" stroke="#73B2C4" stroke-width="4" stroke-linecap="round" stroke-linejoin="round" stroke-dasharray="0,7.717000000000001"/><path d="M55.023 578.489v343.899" stroke="#73B2C4" stroke-width="4" stroke-linecap="round" stroke-linejoin="round" stroke-dasharray="0,7.95"/><path d="M165.325 366.054l62.186 152.748" stroke="#73B2C4" stroke-width="4" stroke-linecap="round" stroke-linejoin="round" stroke-dasharray="0,7.994"/><path d="M237.783 213.597l164.485 305.686" stroke="#73B2C4" stroke-width="4" stroke-linecap="round" stroke-linejoin="round" stroke-dasharray="0,7.852"/><path d="M223.327 213.762l-160.801 309.371" stroke="#73B2C4" stroke-width="4" stroke-linecap="round" stroke-linejoin="round" stroke-dasharray="0,7.887"/><path d="M708.073 213.785l-66.263 130.836" stroke="#73B2C4" stroke-width="4" stroke-linecap="round" stroke-linejoin="round" stroke-dasharray="0,7.857"/><path d="M718.593 213.598l168.169 305.684" stroke="#73B2C4" stroke-width="4" stroke-linecap="round" stroke-linejoin="round" stroke-dasharray="0,7.892"/><path d="M486.278 75.343l223.039 121.002" stroke="#73B2C4" stroke-width="4" stroke-linecap="round" stroke-linejoin="round" stroke-dasharray="0,7.827"/><path d="M459.299 75.343l-222.094 121.002" stroke="#73B2C4" stroke-width="4" stroke-linecap="round" stroke-linejoin="round" stroke-dasharray="0,7.801"/><path d="M472.761 133.702c36.282 0 65.691-29.41 65.691-65.691 0-36.281-29.409-65.691-65.691-65.691-36.282 0-65.693 29.41-65.693 65.691 0 36.281 29.411 65.691 65.693 65.691" fill="#fff"/><text font-family="Open Sans" font-size="27.491" font-weight="bold" fill="#73B2C4" transform="translate(1 2)"><tspan x="440.983" y="68.072">YOU</tspan></text><path d="M472.761 133.702c36.282 0 65.691-29.41 65.691-65.691 0-36.281-29.409-65.691-65.691-65.691-36.282 0-65.693 29.41-65.693 65.691 0 36.281 29.411 65.691 65.693 65.691z" stroke="#73B2C4" stroke-width="4"/><path d="M230.821 251.78c28.591 0 51.768-23.179 51.768-51.768 0-28.591-23.176-51.768-51.768-51.768-28.591 0-51.768 23.177-51.768 51.768 0 28.589 23.176 51.768 51.768 51.768" fill="#fff"/><path d="M230.821 251.78c28.591 0 51.768-23.179 51.768-51.768 0-28.591-23.176-51.768-51.768-51.768-28.591 0-51.768 23.177-51.768 51.768 0 28.589 23.176 51.768 51.768 51.768z" stroke="#73B2C4" stroke-width="4"/><path d="M716.078 251.78c28.591 0 51.768-23.179 51.768-51.768 0-28.591-23.176-51.768-51.768-51.768-28.593 0-51.77 23.177-51.77 51.768 0 28.589 23.176 51.768 51.77 51.768" fill="#fff"/><path d="M716.078 251.78c28.591 0 51.768-23.179 51.768-51.768 0-28.591-23.176-51.768-51.768-51.768-28.593 0-51.77 23.177-51.77 51.768 0 28.589 23.176 51.768 51.77 51.768z" stroke="#73B2C4" stroke-width="4"/><path d="M141.465 403.272c28.591 0 51.768-23.177 51.768-51.764 0-28.591-23.176-51.768-51.768-51.768-28.591 0-51.768 23.177-51.768 51.768 0 28.587 23.176 51.764 51.768 51.764" fill="#fff"/><path d="M141.465 403.272c28.591 0 51.768-23.177 51.768-51.764 0-28.591-23.176-51.768-51.768-51.768-28.591 0-51.768 23.177-51.768 51.768 0 28.587 23.176 51.764 51.768 51.764z" stroke="#73B2C4" stroke-width="4"/><path d="M628.716 403.272c28.591 0 51.768-23.177 51.768-51.764 0-28.591-23.176-51.768-51.768-51.768-28.591 0-51.768 23.177-51.768 51.768 0 28.587 23.176 51.764 51.768 51.764" fill="#fff"/><path d="M628.716 403.272c28.591 0 51.768-23.177 51.768-51.764 0-28.591-23.176-51.768-51.768-51.768-28.591 0-51.768 23.177-51.768 51.768 0 28.587 23.176 51.764 51.768 51.764z" stroke="#73B2C4" stroke-width="4"/><path d="M55.023 577.842c28.593 0 51.768-23.174 51.768-51.766 0-28.589-23.174-51.766-51.768-51.766-28.591 0-51.766 23.177-51.766 51.766 0 28.593 23.174 51.766 51.766 51.766" fill="#73B2C4"/><path d="M55.023 577.842c28.593 0 51.768-23.174 51.768-51.766 0-28.589-23.174-51.766-51.768-51.766-28.591 0-51.766 23.177-51.766 51.766 0 28.593 23.174 51.766 51.766 51.766z" stroke="#73B2C4" stroke-width="4"/><path d="M230.821 577.842c28.591 0 51.768-23.174 51.768-51.766 0-28.589-23.176-51.766-51.768-51.766-28.591 0-51.768 23.177-51.768 51.766 0 28.593 23.176 51.766 51.768 51.766" fill="#fff"/><path d="M230.821 579.806c29.629 0 53.732-24.103 53.732-53.731 0-29.626-24.104-53.731-53.732-53.731-29.629 0-53.732 24.105-53.732 53.731 0 29.628 24.104 53.731 53.732 53.731z" stroke="#73B2C4" stroke-width="2"/><path d="M230.821 574.568c26.74 0 48.494-21.755 48.494-48.493 0-26.738-21.754-48.493-48.494-48.493s-48.494 21.755-48.494 48.493c0 26.738 21.754 48.493 48.494 48.493z" stroke="#73B2C4" stroke-width=".668"/><path d="M55.023 802.719c28.593 0 51.768-23.179 51.768-51.766 0-28.591-23.174-51.77-51.768-51.77-28.591 0-51.766 23.179-51.766 51.77 0 28.587 23.174 51.766 51.766 51.766" fill="#fff"/><path d="M55.023 804.684c29.629 0 53.732-24.105 53.732-53.731 0-29.63-24.104-53.735-53.732-53.735-29.627 0-53.731 24.105-53.731 53.735 0 29.626 24.104 53.731 53.731 53.731z" stroke="#73B2C4" stroke-width="2"/><path d="M55.023 799.446c26.742 0 48.494-21.757 48.494-48.493 0-26.74-21.752-48.497-48.494-48.497-26.74 0-48.492 21.757-48.492 48.497 0 26.736 21.752 48.493 48.492 48.493z" stroke="#73B2C4" stroke-width=".668"/><path d="M55.023 1015.936c28.593 0 51.768-23.175 51.768-51.764 0-28.591-23.174-51.77-51.768-51.77-28.591 0-51.766 23.179-51.766 51.77 0 28.589 23.174 51.764 51.766 51.764" fill="#fff"/><path d="M55.023 1015.936c28.593 0 51.768-23.175 51.768-51.764 0-28.591-23.174-51.77-51.768-51.77-28.591 0-51.766 23.179-51.766 51.77 0 28.589 23.174 51.764 51.766 51.764z" stroke="#73B2C4" stroke-width="4"/><path d="M314.128 403.272c28.593 0 51.77-23.177 51.77-51.764 0-28.591-23.176-51.768-51.77-51.768-28.589 0-51.766 23.177-51.766 51.768 0 28.587 23.176 51.764 51.766 51.764" fill="#fff"/><path d="M314.128 405.237c29.631 0 53.734-24.103 53.734-53.729 0-29.63-24.104-53.733-53.734-53.733-29.629 0-53.731 24.103-53.731 53.733 0 29.626 24.102 53.729 53.731 53.729z" stroke="#73B2C4" stroke-width="2"/><path d="M314.128 399.998c26.74 0 48.496-21.753 48.496-48.491 0-26.742-21.756-48.495-48.496-48.495-26.739 0-48.492 21.753-48.492 48.495 0 26.738 21.754 48.491 48.492 48.491z" stroke="#73B2C4" stroke-width=".668"/><path d="M801.381 403.272c28.591 0 51.768-23.177 51.768-51.764 0-28.591-23.176-51.768-51.768-51.768-28.591 0-51.768 23.177-51.768 51.768 0 28.587 23.176 51.764 51.768 51.764" fill="#fff"/><path d="M801.381 403.272c28.591 0 51.768-23.177 51.768-51.764 0-28.591-23.176-51.768-51.768-51.768-28.591 0-51.768 23.177-51.768 51.768 0 28.587 23.176 51.764 51.768 51.764z" stroke="#73B2C4" stroke-width="4"/><path d="M407.316 577.301c28.591 0 51.768-23.175 51.768-51.766 0-28.591-23.176-51.768-51.768-51.768-28.591 0-51.768 23.177-51.768 51.768s23.176 51.766 51.768 51.766" fill="#fff"/><path d="M407.316 579.266c29.629 0 53.732-24.103 53.732-53.731 0-29.626-24.104-53.733-53.732-53.733-29.629 0-53.732 24.107-53.732 53.733 0 29.628 24.104 53.731 53.732 53.731z" stroke="#73B2C4" stroke-width="2"/><path d="M407.316 574.028c26.74 0 48.494-21.755 48.494-48.493 0-26.738-21.754-48.495-48.494-48.495s-48.494 21.757-48.494 48.495c0 26.738 21.754 48.493 48.494 48.493z" stroke="#73B2C4" stroke-width=".668"/><path d="M890.499 570.008v373.627" stroke="#73B2C4" stroke-width="4" stroke-linecap="round" stroke-linejoin="round" stroke-dasharray="0,8.093999999999999"/><path d="M716.078 557.563v375.448" stroke="#73B2C4" stroke-width="4" stroke-linecap="round" stroke-linejoin="round" stroke-dasharray="0,8.093999999999999"/><path d="M708.195 767.47l-167.133 186.746" stroke="#73B2C4" stroke-width="4" stroke-linecap="round" stroke-linejoin="round" stroke-dasharray="0,8.229000000000001"/><path d="M890.499 577.842c28.589 0 51.766-23.174 51.766-51.766 0-28.589-23.176-51.766-51.766-51.766-28.593 0-51.77 23.177-51.77 51.766 0 28.593 23.176 51.766 51.77 51.766" fill="#fff"/><path d="M890.499 579.806c29.629 0 53.731-24.103 53.731-53.731 0-29.626-24.102-53.731-53.731-53.731s-53.734 24.105-53.734 53.731c0 29.628 24.106 53.731 53.734 53.731z" stroke="#73B2C4" stroke-width="2"/><path d="M890.499 574.568c26.739 0 48.492-21.755 48.492-48.493 0-26.738-21.754-48.493-48.492-48.493-26.742 0-48.496 21.755-48.496 48.493 0 26.738 21.754 48.493 48.496 48.493z" stroke="#73B2C4" stroke-width=".668"/><path d="M716.078 577.842c28.591 0 51.768-23.174 51.768-51.766 0-28.589-23.176-51.766-51.768-51.766-28.593 0-51.77 23.177-51.77 51.766 0 28.593 23.176 51.766 51.77 51.766" fill="#fff"/><path d="M716.078 579.806c29.629 0 53.732-24.103 53.732-53.731 0-29.626-24.104-53.731-53.732-53.731-29.629 0-53.734 24.105-53.734 53.731 0 29.628 24.106 53.731 53.734 53.731z" stroke="#73B2C4" stroke-width="2"/><path d="M716.078 574.568c26.739 0 48.494-21.755 48.494-48.493 0-26.738-21.756-48.493-48.494-48.493-26.74 0-48.496 21.755-48.496 48.493 0 26.738 21.756 48.493 48.496 48.493z" stroke="#73B2C4" stroke-width=".668"/><path d="M716.078 808.042c28.591 0 51.768-23.179 51.768-51.766 0-28.591-23.176-51.77-51.768-51.77-28.593 0-51.77 23.179-51.77 51.77 0 28.587 23.176 51.766 51.77 51.766" fill="#fff"/><path d="M716.078 810.007c29.629 0 53.732-24.105 53.732-53.731 0-29.63-24.104-53.735-53.732-53.735-29.629 0-53.734 24.105-53.734 53.735 0 29.626 24.106 53.731 53.734 53.731z" stroke="#73B2C4" stroke-width="2"/><path d="M716.078 804.769c26.739 0 48.494-21.757 48.494-48.493 0-26.74-21.756-48.497-48.494-48.497-26.74 0-48.496 21.757-48.496 48.497 0 26.736 21.756 48.493 48.496 48.493z" stroke="#73B2C4" stroke-width=".668"/><path d="M890.499 808.042c28.589 0 51.766-23.179 51.766-51.766 0-28.591-23.176-51.77-51.766-51.77-28.593 0-51.77 23.179-51.77 51.77 0 28.587 23.176 51.766 51.77 51.766" fill="#fff"/><path d="M890.499 810.007c29.629 0 53.731-24.105 53.731-53.731 0-29.63-24.102-53.735-53.731-53.735s-53.734 24.105-53.734 53.735c0 29.626 24.106 53.731 53.734 53.731z" stroke="#73B2C4" stroke-width="2"/><path d="M890.499 804.769c26.739 0 48.492-21.757 48.492-48.493 0-26.74-21.754-48.497-48.492-48.497-26.742 0-48.496 21.757-48.496 48.497 0 26.736 21.754 48.493 48.496 48.493z" stroke="#73B2C4" stroke-width=".668"/><path d="M890.499 1015.936c28.589 0 51.766-23.175 51.766-51.764 0-28.591-23.176-51.77-51.766-51.77-28.593 0-51.77 23.179-51.77 51.77 0 28.589 23.176 51.764 51.77 51.764" fill="#fff"/><path d="M890.499 1015.936c28.589 0 51.766-23.175 51.766-51.764 0-28.591-23.176-51.77-51.766-51.77-28.593 0-51.77 23.179-51.77 51.77 0 28.589 23.176 51.764 51.77 51.764z" stroke="#73B2C4" stroke-width="4"/><path d="M716.078 1015.936c28.591 0 51.768-23.175 51.768-51.764 0-28.591-23.176-51.77-51.768-51.77-28.593 0-51.77 23.179-51.77 51.77 0 28.589 23.176 51.764 51.77 51.764" fill="#fff"/><path d="M716.078 1017.901c29.629 0 53.732-24.103 53.732-53.729 0-29.626-24.104-53.735-53.732-53.735-29.629 0-53.734 24.109-53.734 53.735 0 29.626 24.106 53.729 53.734 53.729z" stroke="#73B2C4" stroke-width="2"/><path d="M716.078 1012.662c26.739 0 48.494-21.755 48.494-48.491 0-26.742-21.756-48.497-48.494-48.497-26.74 0-48.496 21.755-48.496 48.497 0 26.736 21.756 48.491 48.496 48.491z" stroke="#73B2C4" stroke-width=".668"/><path d="M535.668 1012.006c28.591 0 51.768-23.175 51.768-51.764 0-28.591-23.176-51.77-51.768-51.77-28.589 0-51.766 23.179-51.766 51.77 0 28.589 23.176 51.764 51.766 51.764" fill="#fff"/><path d="M535.668 1013.971c29.631 0 53.732-24.103 53.732-53.729 0-29.626-24.102-53.735-53.732-53.735-29.629 0-53.731 24.109-53.731 53.735 0 29.626 24.102 53.729 53.731 53.729z" stroke="#73B2C4" stroke-width="2"/><path d="M535.668 1008.732c26.742 0 48.494-21.755 48.494-48.491 0-26.742-21.752-48.497-48.494-48.497-26.74 0-48.492 21.755-48.492 48.497 0 26.736 21.752 48.491 48.492 48.491z" stroke="#73B2C4" stroke-width=".668"/></g></svg>