<svg width="49" height="51" viewBox="0 0 49 51" xmlns="http://www.w3.org/2000/svg"><title>Lifelong Commissions</title><path d="M40.164 32.819c-2.676 0-5.074 1.2-6.696 3.084l-12.821-9.057c1.002-1.669 1.588-3.615 1.588-5.7 0-1.391-.268-2.717-.736-3.946l11.953-5.479c1.294 2.269 3.73 3.805 6.522 3.805 4.14 0 7.51-3.371 7.51-7.515 0-4.141-3.37-7.511-7.51-7.511s-7.51 3.37-7.51 7.511c0 .734.111 1.444.308 2.117l-12.011 5.506c-1.919-3.345-5.518-5.609-9.644-5.609-6.13 0-11.116 4.989-11.116 11.12 0 6.134 4.986 11.124 11.116 11.124 3.427 0 6.494-1.561 8.536-4.006l12.819 9.055c-.727 1.284-1.148 2.763-1.148 4.34 0 4.877 3.966 8.842 8.842 8.842 4.873 0 8.836-3.966 8.836-8.842 0-4.874-3.963-8.839-8.836-8.839zm-.192-30.587c3.186 0 5.779 2.592 5.779 5.779 0 3.189-2.593 5.783-5.779 5.783s-5.779-2.594-5.779-5.783c0-3.188 2.593-5.779 5.779-5.779zm-28.857 28.306c-5.175 0-9.385-4.213-9.385-9.392 0-5.177 4.21-9.388 9.385-9.388 5.177 0 9.387 4.212 9.387 9.388 0 5.179-4.211 9.392-9.387 9.392zm29.048 18.231c-3.921 0-7.111-3.19-7.111-7.111 0-3.918 3.19-7.107 7.111-7.107 3.918 0 7.105 3.189 7.105 7.107 0 3.921-3.187 7.111-7.105 7.111z" fill="#fff"/></svg>