<svg width="56" height="50" viewBox="0 0 56 50" xmlns="http://www.w3.org/2000/svg"><title>Suitcase</title><path d="M19.267 8.254c.537 0 .972-.436.972-.972v-4.281c0-.583.472-1.056 1.053-1.056h12.458c.581 0 1.053.473 1.053 1.056v4.281c0 .537.436.972.972.972.537 0 .972-.436.972-.972v-4.281c0-1.655-1.344-3.001-2.997-3.001h-12.458c-1.653 0-2.997 1.345-2.997 3.001v4.281c0 .537.434.972.972.972zm34.802 2.045h-53.097c-.537 0-.972.436-.972.972v37.756c0 .537.436.972.972.972h53.097c.537 0 .972-.436.972-.972v-37.756c0-.537-.436-.972-.972-.972zm-52.124 1.944h7.064v35.812h-7.064v-35.812zm9.009 0h33.152v35.812h-33.152v-35.812zm35.096 0h7.047v35.812h-7.047v-35.812z" fill="#fff"/></svg>