<svg width="50" height="51" viewBox="0 0 50 51" xmlns="http://www.w3.org/2000/svg"><title>Thumb up to our business model</title><path d="M14.292 20.738l-9.78.004-.365-.015c-.727 0-2.098.156-3.089 1.208-.765.814-1.113 1.96-1.028 3.405.239 4.072 1.364 20.022 1.372 20.124 0 1.741 1.052 5.035 5.033 5.035l8.212-.001.066.001c.874 0 2.356-.585 2.356-2.779v-23.39c.077-.401.247-1.675-.501-2.626-.348-.441-1.024-.966-2.276-.966zm1.117 3.306l-.024.198v23.48c0 .952-.422 1.095-.672 1.095v.842l-.022-.842h-8.256c-3.226 0-3.346-3.013-3.35-3.411-.011-.161-1.134-16.1-1.372-20.163-.057-.965.136-1.689.571-2.152.577-.614 1.495-.679 1.863-.679l.275.01h9.87c.462 0 .78.108.951.321.294.37.217 1.083.166 1.301zm32.329 1.888l-.35-.143c.858-.538 1.709-1.436 1.709-2.983 0-1.057-.321-1.896-.955-2.491-.975-.924-2.341-.994-2.736-.994h-7.464c-.122 0-.388-.134-.425-.147-.239-1.317-.513-2.808.773-5.363.636-1.265.609-3.828-.064-6.372-.631-2.408-1.766-4.546-3.202-6.021l-.09-.082c-.319-.245-1.466-1.025-2.787-.792-.863.152-1.587.681-2.156 1.574-.085.136-.131.292-.131.452l-.009 6.022c-.08.772-.365 2.343-.938 3.34-.432.755-2.473 4.069-4.38 6.997-1.79 2.749-2.456 3.597-2.697 3.862-.782.87-2.387.959-3.275.925-.44-.002-.854.35-.869.815-.015.465.351.853.816.869 1.438.043 3.403-.176 4.578-1.479.482-.53 1.442-1.9 2.858-4.073 1.796-2.76 3.926-6.198 4.431-7.078.859-1.497 1.109-3.601 1.131-3.897.033-.135.037-.256.037-.348v-5.694c.272-.365.567-.57.895-.629.607-.106 1.243.306 1.425.437 1.214 1.269 2.183 3.123 2.735 5.229.624 2.365.563 4.438.189 5.187-1.54 3.059-1.184 5.003-.926 6.423.181.983 1.346 1.528 2.081 1.528h7.464c.377 0 1.135.112 1.583.537.286.268.425.682.425 1.265 0 1.198-.891 1.635-1.967 2.047l-.21.083c-.23.092-.934.373-.886 1.081.051.713.712.875 1.35 1.032.401.099.899.221 1.35.421.584.262 1.357 1.485 1.232 2.639-.158 1.427-1.616 2.017-2.814 2.263-.753.157-1.029.648-1.039 1.053-.006.323.131.904 1.144 1.162.19.055.782.657.817 1.45.046 1.078-1.015 1.72-1.92 2.071l-.154.053c-.272.088-.84.269-.999 1.012-.175.771.502 1.154.758 1.298.406.23.828.468.828 1.587 0 .366-.099.723-.297 1.062-.201.345-.714.725-.992.93-.507.378-1.649.852-2.22.972l-.116.025c-3.686.751-8.287 1.685-15.171 1.588-3.61-.055-5.625-1.104-6.592-1.607-.567-.295-.977-.506-1.449-.264-.401.202-.529.666-.348 1.076.176.394.66.576 1.07.442-.196.088-.377.067-.447.043l.396.195c1.083.563 3.338 1.736 7.344 1.798l1.012.007c6.52 0 10.939-.899 14.521-1.63l.121-.025c.777-.165 2.154-.727 2.881-1.269.517-.382 1.097-.84 1.445-1.434.349-.599.526-1.243.526-1.909 0-1.403-.507-2.156-1.009-2.594 2.279-1.07 2.546-2.667 2.49-3.559-.052-.833-.441-1.672-.982-2.249 2.238-.856 2.766-2.42 2.869-3.362.211-1.92-.975-3.805-2.219-4.361z" fill="#fff"/></svg>