<svg width="46" height="51" viewBox="0 0 46 51" xmlns="http://www.w3.org/2000/svg"><title>Client management</title><path d="M28.793 17.603l.092.072c.702.341 1.443.617 2.214.824l-1.936 2.336c-.248.298-.247.732.003 1.031.157.188.385.287.617.287.135 0 .273-.035.398-.106l5.517-3.14c5.664-.464 10.072-4.467 10.072-9.177 0-5.088-5.017-9.226-11.183-9.229h-.013999999999999999c-.463.001-.919.032-1.371.079l-.364.038c-.365.048-.722.113-1.075.19-.236.049-.465.107-.695.168l-.186.056c-1.619.464-3.077 1.227-4.277 2.24l-.04.033c-.183.157-.36.315-.53.484-.227.22-.442.449-.646.687l-.218.279c-.247.315-.476.641-.677.981l-.005.008-.002.005c-.248.427-.461.873-.63 1.336-.308.854-.463 1.744-.463 2.645 0 3.242 2.088 6.22 5.396 7.874zm-3.419-9.973c.136-.375.311-.737.513-1.084.184-.317.398-.62.632-.909l.07-.088c.227-.273.477-.533.743-.779l.121-.109c.269-.238.553-.464.854-.672l.127-.082c.299-.201.612-.387.941-.558l.071-.04c.335-.169.685-.319 1.043-.455l.197-.075c.35-.124.71-.232 1.077-.323l.232-.055c.374-.085.755-.153 1.142-.202l.194-.019c.409-.044.824-.072 1.243-.073h.01c5.282.001 9.579 3.42 9.579 7.621 0 3.92-3.848 7.252-8.76 7.586-.121.009-.238.043-.343.103l-1.845 1.05c.161-.218.201-.504.105-.759-.102-.27-.341-.465-.625-.512-.939-.151-1.825-.433-2.665-.797-3.06-1.323-5.023-3.89-5.023-6.672 0-.714.123-1.421.369-2.099zm16.705 33.016c-1.859-3.07-5.713-2.691-5.79-2.675h-2.98c-.136-.002-3.263-.083-5.094 2.555-.281.401-.587 1.065-.935 2.03l-.02.128c-.867-2.772-1.891-5.539-2.767-6.684-2.63-4.372-8.133-3.822-8.278-3.802h-4.442c-.193-.005-4.635-.121-7.241 3.626-1.435 2.064-3.542 9.947-4.281 13.226-.099.433.174.863.607.961.432.097.864-.174.962-.607.774-3.433 2.819-10.916 4.032-12.662 2.097-3.012 5.833-2.934 5.893-2.935l4.556-.004c.046-.006 4.75-.457 6.835 3.061l.061.09c1.297 1.639 3.455 8.977 4.249 12.453.085.372.417.625.784.625l.179-.02c.433-.1.705-.53.605-.963-.269-1.179-.834-3.357-1.525-5.629.077.071.168.13.275.167.419.149.878-.064 1.03-.483.388-1.072.632-1.499.742-1.658 1.324-1.905 3.623-1.865 3.748-1.865l3.092-.003c.127-.016 3.033-.284 4.348 1.933l.061.089c.774.98 2.203 5.63 2.809 8.276.085.373.416.625.782.625l.18-.019c.433-.1.705-.531.606-.964-.424-1.85-1.928-7.343-3.08-8.87zm-28.003-9.737c5.562 0 10.086-4.524 10.086-10.084 0-5.558-4.525-10.081-10.086-10.081-5.557 0-10.08 4.522-10.08 10.081 0 5.561 4.522 10.084 10.08 10.084zm0-18.556c4.675 0 8.478 3.801 8.478 8.472 0 4.674-3.803 8.475-8.478 8.475-4.672 0-8.471-3.802-8.471-8.475 0-4.672 3.8-8.472 8.471-8.472zm13.728 18.231c0 3.886 3.162 7.048 7.047 7.048 3.886 0 7.05-3.162 7.05-7.048s-3.164-7.048-7.05-7.048c-3.885 0-7.047 3.162-7.047 7.048zm12.488 0c0 3-2.441 5.439-5.442 5.439-2.997 0-5.438-2.44-5.438-5.439 0-3 2.441-5.439 5.438-5.439 3.001 0 5.442 2.44 5.442 5.439z" fill="#fff"/></svg>