<svg width="30" height="30" viewBox="0 0 30 30" xmlns="http://www.w3.org/2000/svg"><title>Search</title><path d="M29.655 29.101l-10.584-10.584c1.834-1.969 2.967-4.6 2.967-7.497 0-6.077-4.943-11.02-11.02-11.02-6.076 0-11.018 4.944-11.018 11.02 0 6.075 4.942 11.02 11.018 11.02 2.801 0 5.353-1.059 7.3-2.787l10.593 10.593c.102.102.237.154.373.154.134 0 .268-.051.371-.154.206-.206.206-.539 0-.745zm-18.636-8.115c-5.495 0-9.965-4.472-9.965-9.967 0-5.496 4.47-9.967 9.965-9.967s9.967 4.471 9.967 9.967c0 5.495-4.471 9.967-9.967 9.967z" fill="#fff"/></svg>