<svg xmlns="http://www.w3.org/2000/svg" width="32" height="32" viewBox="0 0 32 32"><path fill="#fff" d="M31.4 11.2l-3-3.998c-.117-.157-.256-.293-.4-.423v-4.779c0-1.104-.896-2-2-2h-20c-1.105 0-2 .896-2 2v4.78c-.144.129-.283.264-.4.42l-2.999 3.999c-.388.516-.601 1.155-.601 1.801v1c0 1.654 1.346 3 3 3v13c0 1.104.896 2 2 2h22c1.104 0 2-.896 2-2v-13c1.654 0 3-1.346 3-3v-1c0-.646-.213-1.285-.6-1.8zm-5.4-9.2v4h-20v-4h20zm-15.807 13h-4.189l4-7h2.189l-2 7zm3.041-7h2.266v7h-4.266l2-7zm3.266 0h2.266l2 7h-4.266v-7zm3.305 0h2.189l4 7h-4.189l-2-7zm-17.805 6v-1c0-.217.07-.427.2-.6l3-4c.189-.252.485-.4.8-.4h2.852l-4 7h-1.852c-.552 0-1-.447-1-1zm18 16h-7.5v-10h7.5v10zm7 0h-6v-10c0-.553-.449-1-1-1h-7.5c-.552 0-1 .447-1 1v10h-6.5v-13h22v13zm3-16c0 .553-.447 1-1 1h-1.854l-4-7h2.854c.314 0 .611.148.799.4l3 4c.131.173.201.383.201.6v1z"/></svg>