<svg xmlns="http://www.w3.org/2000/svg" width="32" height="32" viewBox="0 0 32 32"><path fill="#fff" d="M32 8c0-1.406-.957-2.608-2.326-2.924l-13.013-3.003c-.218-.049-.44-.073-.661-.073s-.443.024-.675.076l-12.999 3c-1.37.316-2.326 1.518-2.326 2.924s.957 2.608 2.325 2.924l2.675.617v8.459c0 2.654 3.038 5 11 5s11-2.346 11-5v-8.459l2.674-.617c1.369-.316 2.326-1.518 2.326-2.924zm-7 12c0 1.105-3 3-9 3s-9-1.895-9-3v-7.997l8.338 1.924c.218.049.441.073.662.073s.444-.024.674-.076l8.326-1.921v7.997zm-8.775-8.025l-.225.025-.225-.025-13-3c-.454-.105-.775-.509-.775-.975s.321-.87.775-.975l13-3 .225-.025.225.025 13 3c.453.105.775.509.775.975s-.322.87-.775.975l-13 3zm12.775 1.025c0-.553.447-1 1-1 .552 0 1 .447 1 1v9c0 .553-.448 1-1 1-.553 0-1-.447-1-1v-9zm1 11c1.104 0 2 2.896 2 4s-.896 2-2 2c-1.105 0-2-.896-2-2s.895-4 2-4z"/></svg>