<svg xmlns="http://www.w3.org/2000/svg" viewBox="0 0 1024 721" enable-background="new 0 0 1024 721"><style type="text/css">.st0{fill:#FFFFFF;} .st1{opacity:0.12;fill-rule:evenodd;clip-rule:evenodd;fill:#420000;} .st2{fill:url(#SVGID_1_);}</style><path id="Triangle" class="st0" d="M407 493l276-143-276-144v287z"/><path id="The_Sharpness" class="st1" d="M407 206l242 161.6 34-17.6-276-144z"/><g id="Lozenge"><linearGradient id="SVGID_1_" gradientUnits="userSpaceOnUse" x1="512.499" y1="1.296" x2="512.499" y2="719.719"><stop offset="0" stop-color="#E52D27"/><stop offset="1" stop-color="#BF171D"/></linearGradient><path class="st2" d="M1013 156.3s-10-70.4-40.6-101.4c-38.8-40.7-82.4-40.9-102.3-43.3-143-10.3-357.4-10.3-357.4-10.3h-.4s-214.4 0-357.4 10.3c-19.9 2.4-63.5 2.6-102.3 43.3-30.6 31-40.6 101.4-40.6 101.4s-10.2 82.6-10.2 165.3v77.5c0 82.7 10.2 165.3 10.2 165.3s10 70.4 40.6 101.4c38.9 40.7 89.9 39.4 112.6 43.7 81.7 7.8 347.3 10.3 347.3 10.3s214.6-.3 357.6-10.7c20-2.4 63.5-2.6 102.3-43.3 30.6-31 40.6-101.4 40.6-101.4s10.2-82.7 10.2-165.3v-77.5c0-82.7-10.2-165.3-10.2-165.3zm-606 336.7v-287l276 144-276 143z"/></g></svg>