<svg viewBox="0 0 192 31" xmlns="http://www.w3.org/2000/svg" xmlns:sketch="http://www.bohemiancoding.com/sketch/ns"><title>metropolee-logo-home_home-w</title><desc>Created with Sketch.</desc><defs><style type="text/css">#type { visibility: visible; } @media screen and (max-width: 191px) { #type { visibility: hidden; } }</style></defs><g id="metropolee-logo-home_home-w" sketch:type="MSShapeGroup" fill="#fff"><g id="type"><path d="M44.577 15.502c0-.435.373-.808.808-.808h.187c.352 0 .601.187.766.436l5.176 7.783 5.176-7.783c.165-.27.435-.436.766-.436h.187c.435 0 .807.373.807.808v13.021c0 .456-.372.828-.807.828-.455 0-.828-.393-.828-.828v-10.806l-4.638 6.812c-.186.269-.393.414-.683.414-.29 0-.518-.146-.704-.414l-4.616-6.79v10.807c0 .455-.353.807-.808.807-.436 0-.787-.352-.787-.807v-13.044h-.002zM62.546 28.42v-12.835c0-.455.373-.828.808-.828h9.006c.414 0 .745.331.745.745s-.331.745-.745.745h-8.178v4.948h7.246c.414 0 .745.352.745.745 0 .414-.331.745-.745.745h-7.246v5.072h8.281c.414 0 .745.331.745.745s-.331.745-.745.745h-9.109c-.435.001-.808-.371-.808-.827zM80.248 16.268h-4.202c-.414 0-.767-.331-.767-.745s.353-.766.767-.766h10.061c.414 0 .767.352.767.766 0 .414-.353.745-.767.745h-4.202v12.256c0 .456-.373.828-.828.828-.455 0-.828-.372-.828-.828v-12.256h-.001zM89.833 15.585c0-.455.373-.828.808-.828h5.424c1.78 0 3.209.538 4.12 1.449.703.704 1.117 1.718 1.117 2.856v.042c0 2.381-1.614 3.768-3.871 4.202l3.603 4.638c.165.187.269.372.269.601 0 .435-.414.807-.828.807-.331 0-.579-.187-.766-.435l-4.078-5.3h-4.161v4.906c0 .456-.373.828-.828.828-.435 0-.808-.372-.808-.828v-12.938h-.001zm6.086 6.562c2.174 0 3.727-1.118 3.727-2.981v-.041c0-1.78-1.367-2.857-3.706-2.857h-4.472v5.88h4.451v-.001zM104.159 22.044v-.042c0-3.995 3.002-7.493 7.411-7.493 4.41 0 7.37 3.457 7.37 7.452v.041c0 3.996-3.002 7.495-7.411 7.495s-7.37-3.458-7.37-7.453zm13.084 0v-.042c0-3.291-2.401-5.982-5.714-5.982-3.313 0-5.672 2.649-5.672 5.941v.041c0 3.292 2.401 5.983 5.713 5.983 3.312 0 5.673-2.649 5.673-5.941zM122.398 15.585c0-.455.373-.828.808-.828h4.616c3.271 0 5.424 1.739 5.424 4.596v.042c0 3.126-2.608 4.74-5.692 4.74h-3.52v4.389c0 .456-.373.828-.828.828-.435 0-.808-.372-.808-.828v-12.939zm5.217 7.06c2.401 0 3.975-1.284 3.975-3.188v-.041c0-2.07-1.553-3.147-3.892-3.147h-3.664v6.377h3.581v-.001zM135.585 22.044v-.042c0-3.995 3.002-7.493 7.411-7.493 4.41 0 7.37 3.457 7.37 7.452v.041c0 3.996-3.001 7.495-7.411 7.495s-7.37-3.458-7.37-7.453zm13.084 0v-.042c0-3.291-2.401-5.982-5.714-5.982-3.313 0-5.672 2.649-5.672 5.941v.041c0 3.292 2.401 5.983 5.713 5.983 3.313 0 5.673-2.649 5.673-5.941zM153.825 15.481c0-.455.372-.828.807-.828.456 0 .828.373.828.828v12.256h7.515c.414 0 .746.352.746.766 0 .414-.332.745-.746.745h-8.343c-.435 0-.807-.372-.807-.828v-12.939zM166.639 28.42v-12.835c0-.455.373-.828.809-.828h9.004c.414 0 .746.331.746.745s-.332.745-.746.745h-8.176v4.948h7.244c.414 0 .746.352.746.745 0 .414-.332.745-.746.745h-7.244v5.072h8.279c.414 0 .746.331.746.745s-.332.745-.746.745h-9.107c-.436.001-.809-.371-.809-.827zM180.51 28.42v-12.835c0-.455.373-.828.807-.828h9.006c.414 0 .746.331.746.745s-.332.745-.746.745h-8.176v4.948h7.244c.414 0 .746.352.746.745 0 .414-.332.745-.746.745h-7.244v5.072h8.279c.414 0 .746.331.746.745s-.332.745-.746.745h-9.109c-.434.001-.807-.371-.807-.827z" id="Shape"/></g><g id="logo"><path d="M9 6.652v-.032l-4-2.028v10.876l4-1.878v-6.938zM21 18.712v-13.192l-11-5.228v5.681l8 3.17v8.121l3 1.448zM15 16.612v-.796l2 .965v-6.959l-7-2.773v6.072l3-1.408v18.787h2v-13.888zM10 7.049l7 2.773-7-2.774v.001zM10 18.5h-6v-1.458l-3.18 1.493 2.493 11.965h8.687v-14h-2v2zM9 14.695l-4 1.878v.927h4v-2.8049999999999997zM9 17.5v1h1v-2h-1v1zM9 18.5v-1h-4v-.927l-1 .469v1.458h5zM10 14.226v1.274h2v-2.213l-2 .939z" id="Shape"/><path id="Rectangle-path" d="M10 15.5h2v1h-2z"/><path d="M9 16.5h1v-2.274l-1 .469v1.805zM21 21.5h-4v-1h-1v10h11.574l1.123-6.962-6.697-3.233v1.195h-1zM18 20.5h3v-.678l-3-1.448v2.126zM21 20.5v1h1v-1.195l-1-.483v.678zM17 20.5v1h4v-1h-4zM16 17.409v2.091h1v-1.608l-1-.483zM18 18.374l-1-.482v2.608h1v-2.126z" id="Shape"/><path id="Rectangle-path" d="M16 19.5h1v1h-1z"/></g></g></svg>