<svg width="1440" height="235" viewBox="0 0 1440 235" xmlns="http://www.w3.org/2000/svg"><title>City outline</title><g fill-opacity=".8" fill="#fff"><path d="M76 101h54v134h-54z"/><path d="M686 195h54v40h-54z"/><path d="M265 151h54v83.982h-54z"/><path d="M582 151h54v83.982h-54z"/><path d="M403 23h54v211.991h-54z"/><path d="M522 85h54v150h-54z"/><path d="M490 170h54v65h-54z"/><path d="M293 85h54v150h-54z"/><path d="M-14 85h54v150h-54z"/><path d="M610 85h54v150h-54z"/><path d="M103 45h54v190h-54z"/><path d="M420 0h54v235h-54z"/><path d="M211 181h54v54h-54z"/><path d="M508 181h54v54h-54z"/><path d="M315 101h54v134h-54z"/><path d="M632 101h54v134h-54z"/><path d="M130 195h54v40h-54z"/><path d="M457 197h54v38h-54z"/><path d="M1321 235h54v-120h-54z"/><path d="M1109 234.982h54v-83.982h-54z"/><path d="M792 234.982h54v-83.982h-54z"/><path d="M982 234.99h54v-211.991h-54z"/><path d="M853 235h54v-150h-54z"/><path d="M895 235h54v-65h-54z"/><path d="M1082 235h54v-150h-54z"/><path d="M1389 235h54v-150h-54z"/><path d="M764 235h54v-150h-54z"/><path d="M1282 235h54v-190h-54z"/><path d="M965 235h54v-235h-54z"/><path d="M1194 235h54v-54h-54z"/><path d="M877 235h54v-54h-54z"/><path d="M1070 235h54v-134h-54z"/><path d="M753 235h54v-134h-54z"/><path d="M1234 235h54v-40h-54z"/><path d="M917 235h54v-40h-54z"/></g></svg>