<svg xmlns="http://www.w3.org/2000/svg" width="32" height="32" viewBox="0 0 32 32"><path fill="#fff" d="M29.5 21h-2.691c-.045-.239-.1-.473-.16-.706l4.799-2.399c.494-.247.693-.848.447-1.342-.248-.494-.846-.692-1.342-.447l-4.578 2.288c-1.746-3.768-5.555-6.394-9.975-6.394-5.382 0-9.865 3.888-10.809 9h-2.691c-1.378 0-2.5 1.121-2.5 2.5 0 .49.18.963.505 1.329l3.495 3.932v.739c0 1.379 1.122 2.5 2.5 2.5h19c1.379 0 2.5-1.121 2.5-2.5v-.739l3.494-3.932c.326-.366.506-.839.506-1.329 0-1.379-1.121-2.5-2.5-2.5zm-3.701 0h-.562l.498-.25.064.25zm-9.799-8c4.029 0 7.5 2.4 9.082 5.841l-.891.445c-1.416-3.115-4.546-5.286-8.191-5.286-4.282 0-7.859 2.993-8.77 7h-1.028c.929-4.559 4.969-8 9.798-8zm4.576 8c-.773-1.763-2.531-3-4.576-3s-3.802 1.237-4.576 3h-1.074c.826-2.326 3.043-4 5.65-4 2.465 0 4.588 1.496 5.508 3.627l-.932.373zm-4.576-1c-.883 0-1.67.391-2.22 1h-1.224c.694-1.189 1.97-2 3.444-2 1.473 0 2.75.811 3.443 2h-1.225c-.548-.609-1.335-1-2.218-1zm0-4c-3.165 0-5.842 2.112-6.705 5h-1.032c.892-3.444 4.017-6 7.737-6 3.246 0 6.043 1.948 7.295 4.734l-.893.446c-1.088-2.457-3.547-4.18-6.402-4.18zm10 12v1.5c0 .276-.225.5-.5.5h-19c-.276 0-.5-.224-.5-.5v-1.5l-4-4.5c0-.276.224-.5.5-.5h27c.275 0 .5.224.5.5l-4 4.5zm-18.023-16.288l-.018-.042c-.519-1.253-.003-2.482.463-3.591.441-1.052.832-1.984.428-2.893l-.005-.012-.003-.009-.001-.006-.032-.169c0-.27.219-.49.49-.49.208 0 .385.13.456.313.558 1.271.051 2.521-.422 3.647-.438 1.042-.794 2.01-.419 2.892v.02l.018.125c0 .277-.225.503-.502.503-.194 0-.36-.11-.443-.27h-.002l-.008-.018zm12.177-.146l-.016-.04c-.519-1.253-.004-2.483.461-3.592.442-1.052.832-1.984.428-2.893l-.004-.012-.004-.009v-.006l-.033-.169c0-.27.22-.49.49-.49.209 0 .385.129.457.313.558 1.271.051 2.521-.422 3.647-.438 1.042-.793 2.01-.42 2.892l.002.02.018.125c0 .277-.227.503-.504.503-.193 0-.359-.111-.443-.271h-.002l-.008-.018zm-5.135-4.354l-.019-.041c-.52-1.253-.004-2.483.462-3.592.441-1.052.832-1.984.428-2.893l-.004-.012-.003-.009-.001-.006-.032-.169c0-.27.22-.49.49-.49.209 0 .385.13.457.314.558 1.271.051 2.521-.422 3.647-.438 1.042-.794 2.01-.419 2.892v.02l.018.125c0 .277-.225.503-.502.503-.193 0-.359-.111-.443-.271h-.002l-.008-.018z"/></svg>