<svg width="100" height="100" viewBox="0 0 100 100" xmlns="http://www.w3.org/2000/svg"><title>Your client, our client</title><path d="M42.79 49.994c0 4.371 3.558 7.928 7.925 7.928 4.371 0 7.931-3.557 7.931-7.928s-3.56-7.926-7.931-7.926c-4.367 0-7.925 3.555-7.925 7.926zm12.894 0c0 2.738-2.229 4.967-4.969 4.967-2.734 0-4.963-2.229-4.963-4.967 0-2.736 2.229-4.965 4.963-4.965 2.74 0 4.969 2.229 4.969 4.965zm-42.176-3.015l.178.012c.738 0 1.38-.551 1.469-1.303 1.935-16.072 14.501-28.815 30.554-30.993.811-.109 1.382-.855 1.269-1.664-.109-.807-.845-1.384-1.666-1.269-17.389 2.357-31.002 16.163-33.096 33.571-.097.811.482 1.55 1.293 1.646zm36.492-20.563c.817 0 1.481-.663 1.481-1.481v-23.455c0-.817-.663-1.481-1.481-1.481-.817 0-1.481.663-1.481 1.481v23.455c0 .817.663 1.481 1.481 1.481zm4.332-11.877c16.329 1.725 29.614 14.826 31.584 31.149.089.752.728 1.303 1.465 1.303l.182-.012c.809-.097 1.39-.835 1.291-1.646-2.132-17.679-16.519-31.867-34.21-33.739-.817-.089-1.544.505-1.629 1.317-.085.813.501 1.542 1.317 1.629zm33.231 38.479c-.807-.099-1.552.478-1.647 1.291-1.97 16.319-15.251 29.417-31.584 31.143-.815.087-1.402.815-1.317 1.629.081.76.723 1.325 1.471 1.325l.158-.008c17.691-1.872 32.078-16.056 34.21-33.733.099-.813-.482-1.552-1.291-1.646zm-61.141-3.02c0-.817-.663-1.481-1.481-1.481h-23.46c-.819 0-1.481.663-1.481 1.481 0 .817.661 1.481 1.481 1.481h23.46c.817 0 1.481-.663 1.481-1.481zm23.579 23.58c-.817 0-1.481.663-1.481 1.481v23.461c0 .817.663 1.481 1.481 1.481.817 0 1.481-.663 1.481-1.481v-23.461c0-.817-.663-1.481-1.481-1.481zm48.517-25.06h-23.454c-.817 0-1.481.663-1.481 1.481 0 .817.663 1.481 1.481 1.481h23.454c.819 0 1.483-.663 1.483-1.481 0-.817-.663-1.481-1.483-1.481zm-52.809 36.779c-16.053-2.172-28.619-14.917-30.554-30.987-.097-.813-.849-1.388-1.647-1.291-.811.095-1.39.833-1.293 1.646 2.099 17.408 15.707 31.212 33.096 33.565l.201.014c.728 0 1.364-.539 1.465-1.281.113-.809-.458-1.556-1.269-1.666z" fill="#2C87A3"/></svg>