<svg width="48" height="50" viewBox="0 0 48 50" xmlns="http://www.w3.org/2000/svg"><title>Trophy</title><path d="M45.123.004l-.179.011-5.917.009-.046.009-.154-.03h-29.789l-.162.033-.053-.011-5.755.003-.152-.011-.188-.012c-1.529.059-2.727 1.306-2.727 2.837 0 .756.297 1.472.839 2.015l7.352 7.355v1.69c0 8.218 6.619 14.932 14.911 15.358l-.024.117v18.934h-8.646c-.466 0-.845.379-.845.845 0 .466.379.845.845.845h18.983c.466 0 .845-.379.845-.845 0-.466-.379-.845-.845-.845h-8.647v-18.934l-.024-.117c8.3-.419 14.926-7.136 14.926-15.358v-1.706l7.341-7.341c.539-.542.835-1.256.835-2.012 0-1.531-1.197-2.779-2.725-2.837zm-36.931 9.817l-6.157-6.158c-.225-.226-.345-.51-.345-.821 0-.599.452-1.092 1.041-1.145l.198.015.123.003h5.139v8.106zm29.789 4.08c0 7.559-6.302 13.709-14.05 13.709-7.746 0-14.049-6.15-14.049-13.709v-12.208h28.099v12.208zm7.835-10.239l-6.144 6.143v-8.09h5.18l.14-.009.127-.009c.588.054 1.039.545 1.039 1.145 0 .311-.118.596-.341.82z" fill="#fff"/></svg>