<svg width="125" height="100" viewBox="0 0 125 100" xmlns="http://www.w3.org/2000/svg"><title>People</title><path d="M62.499 51.121c14.184 0 25.725-11.468 25.725-25.565 0-14.09-11.541-25.555-25.725-25.555-14.176 0-25.71 11.466-25.71 25.555 0 14.097 11.534 25.565 25.71 25.565zm0-47.442c12.143 0 22.023 9.815 22.023 21.877 0 12.069-9.88 21.886-22.023 21.886-12.136 0-22.009-9.817-22.009-21.886 0-12.062 9.873-21.877 22.009-21.877zm38.793 38.784c-3.519 0-6.816-1.172-9.537-3.389-.787-.645-1.957-.532-2.603.255-.649.785-.533 1.945.257 2.59 3.341 2.722 7.561 4.223 11.884 4.223 10.366 0 18.798-8.378 18.798-18.676 0-10.296-8.432-18.671-18.798-18.671-4.328 0-8.548 1.498-11.886 4.221-.787.643-.903 1.803-.254 2.587.647.785 1.816.9 2.606.258 2.675-2.185 6.063-3.387 9.535-3.387 8.323 0 15.097 6.725 15.097 14.992 0 8.27-6.774 14.997-15.097 14.997zm-12.183 22.007c-6.685-11.073-20.718-9.688-21.115-9.629h-11.432c-.503-.01-11.795-.304-18.431 9.175-3.679 5.244-9.083 25.364-10.983 33.737-.227.993.4 1.977 1.397 2.2.997.228 1.986-.397 2.211-1.391 1.999-8.792 7.27-27.961 10.413-32.442 5.458-7.799 15.188-7.583 15.329-7.6l11.694-.01c.123-.015 12.365-1.185 17.796 7.936l.141.206c3.334 4.182 8.915 23.002 10.971 31.917.197.851.96 1.427 1.804 1.427.136 0 .274-.015.415-.044.994-.228 1.619-1.214 1.389-2.207-1.614-6.992-7.334-27.76-11.598-33.276zm-65.409-18.328c4.326 0 8.55-1.501 11.891-4.223.79-.645.906-1.805.257-2.59-.649-.787-1.814-.9-2.603-.255-2.722 2.217-6.021 3.389-9.545 3.389-8.323 0-15.094-6.727-15.094-14.997 0-8.267 6.771-14.992 15.094-14.992 3.524 0 6.82 1.17 9.535 3.387.792.643 1.959.527 2.606-.258.649-.785.533-1.945-.257-2.587-3.336-2.722-7.558-4.221-11.884-4.221-10.364 0-18.796 8.375-18.796 18.671 0 10.298 8.432 18.676 18.796 18.676zm101.256 25.835c-1.972-8.839-3.963-14.735-5.917-17.528-4.861-6.958-13.194-6.742-13.478-6.735l-7.956.012c-.402-.054-9.954-.996-15.072 6.202-.59.829-.39 1.979.444 2.563.832.584 1.989.39 2.579-.441 3.842-5.408 11.571-4.682 11.847-4.657h8.225c.064-.047 6.648-.177 10.374 5.155 1.152 1.648 3.015 5.803 5.34 16.224.192.856.957 1.442 1.806 1.442.133 0 .267-.015.4-.044.999-.221 1.629-1.202 1.409-2.193zm-85.068-15.235c.523.878 1.656 1.167 2.534.645.881-.517 1.172-1.646.651-2.519-4.896-8.214-15.245-7.191-15.482-7.154h-8.089c-.336 0-8.684-.231-13.547 6.735-1.964 2.808-3.953 8.706-5.912 17.528-.22.993.412 1.974 1.409 2.193.136.029.269.044.4.044.849 0 1.616-.586 1.806-1.445 1.801-8.115 3.696-13.876 5.337-16.221 3.689-5.285 10.097-5.155 10.443-5.155l8.348-.01c.086-.01 8.434-.795 12.101 5.359z" fill="#2C87A3"/></svg>