<svg width="62" height="100" viewBox="0 0 62 100" xmlns="http://www.w3.org/2000/svg"><title>Coccardona gigante</title><g fill="#2C87A3"><path d="M48.548 43.398c4.743-4.591 7.704-11.045 7.704-18.188 0-13.901-11.196-25.21-24.959-25.21-13.764 0-24.96 11.309-24.96 25.21 0 6.927 2.781 13.209 7.274 17.77l-13.607 51.897 11.653-7.274 7.051 12.234 12.319-46.983 12.36 47.146 6.539-12.27 12.078 6.985-13.452-51.317zm-39.39-18.188c0-12.328 9.93-22.356 22.135-22.356 12.204 0 22.134 10.028 22.134 22.356 0 6.477-2.744 12.317-7.117 16.403-3.949 3.691-9.225 5.952-15.017 5.952-5.683 0-10.87-2.175-14.792-5.742-4.505-4.095-7.343-10.026-7.343-16.613zm8.56 67.241l-5.082-8.817-8.088 5.05 11.428-43.591c3.607 2.841 8.001 4.71 12.795 5.198l-11.053 42.16zm31.092-8.655l-4.525 8.491-11-41.955c4.798-.385 9.222-2.141 12.876-4.888l11.378 43.402-8.729-5.05z"/><path d="M31.293 43.284c9.868 0 17.897-8.108 17.897-18.074 0-9.967-8.029-18.075-17.897-18.075-9.868 0-17.895 8.108-17.895 18.075 0 9.966 8.027 18.074 17.895 18.074zm0-33.295c8.311 0 15.071 6.828 15.071 15.221 0 8.392-6.76 15.22-15.071 15.22s-15.07-6.828-15.07-15.22c0-8.393 6.759-15.221 15.07-15.221z"/></g></svg>