<svg width="60" height="100" viewBox="0 0 60 100" xmlns="http://www.w3.org/2000/svg"><title>Smartphone apps</title><path d="M30.001 10.11c1.382 0 2.507-1.112 2.507-2.482 0-1.359-1.125-2.467-2.507-2.467-1.384 0-2.511 1.108-2.511 2.467 0 1.37 1.127 2.482 2.511 2.482zm-.091 84.299c2.61 0 4.734-2.088 4.734-4.657 0-2.556-2.124-4.632-4.734-4.632-2.597 0-4.713 2.076-4.713 4.632 0 2.569 2.115 4.657 4.713 4.657zm28.468-94.409h-56.756c-.895 0-1.622.715-1.622 1.595v96.81c0 .88.727 1.595 1.622 1.595h56.756c.895 0 1.622-.715 1.622-1.595v-96.81c0-.88-.727-1.595-1.622-1.595zm-55.134 83.376h53.512v13.434h-53.512v-13.434zm0-68.259h53.512v65.069h-53.512v-65.069zm0-11.927h53.512v8.734h-53.512v-8.734z" fill="#2C87A3"/></svg>