<svg xmlns="http://www.w3.org/2000/svg" width="32" height="32" viewBox="0 0 32 32"><path fill="#fff" d="M31.25 6.438l-5-4c-.355-.284-.797-.438-1.25-.438h-18c-.454 0-.895.154-1.25.438l-5 4c-.654.524-.912 1.4-.647 2.195l2 6c.197.591.659 1.057 1.249 1.259.21.072.43.108.648.108.348 0 .693-.091 1-.268v12.268c0 1.104.896 2 2 2h18c1.104 0 2-.896 2-2v-12.268c.307.177.652.268 1 .268.219 0 .438-.036.648-.108.59-.202 1.051-.668 1.248-1.259l2-6c.266-.795.008-1.671-.646-2.195zm-11.496-2.438c-.553 1.161-2.018 2-3.754 2s-3.202-.839-3.754-2h7.508zm8.246 10l-3-2v16h-18v-16l-3 2-2-6 5-4h4.177c.557 1.722 2.496 3 4.823 3s4.266-1.278 4.822-3h4.178l5 4-2 6z"/></svg>