<svg xmlns="http://www.w3.org/2000/svg" width="32" height="32" viewBox="0 0 32 32"><path fill="#fff" d="M21.951 1.15c-8.202-3.284-17.515.702-20.8 8.905-3.286 8.204.702 17.518 8.905 20.802s17.516-.702 20.801-8.905c3.286-8.204-.703-17.516-8.906-20.802zm-11.151 27.851c-7.166-2.87-10.662-11.034-7.793-18.201s11.035-10.663 18.202-7.792c7.166 2.869 10.662 11.034 7.793 18.2-2.871 7.167-11.035 10.662-18.202 7.793zm5.949-14.854c-1.025-.411-2.19.088-2.601 1.113s.088 2.189 1.112 2.6c1.025.411 2.191-.088 2.601-1.112s-.088-2.189-1.112-2.601zm-1.117 2.786c-.512-.206-.761-.788-.557-1.301.206-.512.789-.761 1.301-.557.511.205.76.788.556 1.301s-.788.761-1.3.557zm2.602-6.498c-3.076-1.232-6.568.264-7.8 3.339s.264 6.568 3.339 7.8c3.076 1.232 6.568-.263 7.8-3.339s-.262-6.569-3.339-7.8zm-3.716 9.282c-2.048-.819-3.046-3.153-2.227-5.2.82-2.047 3.152-3.046 5.199-2.227 2.049.82 3.047 3.154 2.229 5.201-.821 2.047-3.154 3.047-5.201 2.226zm8.914-.739h-.002c-.817 2.039-2.383 3.556-4.256 4.366l-.021.015c-.254.108-.547-.009-.656-.264-.109-.253.01-.547.262-.655 1.646-.705 3.025-2.038 3.744-3.834v.001c.103-.257.394-.382.65-.278.256.102.381.393.279.649zm3.433.836c.256.103.381.394.279.65-1.225 3.058-3.576 5.335-6.385 6.548l-.033.022c-.254.108-.547-.008-.656-.263-.109-.254.01-.548.262-.656 2.588-1.108 4.754-3.203 5.883-6.023.103-.256.394-.381.65-.278zm-1.857-.743c.256.103.381.394.279.65-1.021 2.549-2.98 4.445-5.32 5.456l-.027.02c-.254.108-.547-.009-.656-.263s.01-.548.264-.657h-.002c2.119-.907 3.89-2.62 4.812-4.928.103-.257.394-.381.65-.278zm-11.495-10.159c.109.255-.009.548-.263.658-1.646.704-3.025 2.038-3.743 3.832h-.001c-.102.256-.393.381-.65.278s-.381-.393-.278-.65h.001c.816-2.038 2.383-3.556 4.256-4.366l.021-.014c.254-.109.548.007.657.262zm-1.575-3.677c.109.254-.009.547-.262.657-2.588 1.108-4.753 3.203-5.883 6.022-.103.257-.394.381-.65.278s-.382-.393-.278-.651c1.225-3.058 3.575-5.334 6.385-6.548l.031-.021c.254-.108.548.009.657.263zm.524 2.494v.003c-2.117.906-3.889 2.62-4.812 4.928-.103.257-.394.38-.65.278-.255-.104-.381-.394-.277-.651 1.02-2.548 2.979-4.446 5.32-5.458l.026-.018c.254-.109.548.009.657.262.109.255-.01.548-.263.656z"/></svg>